<mxfile host="app.diagrams.net" modified="2023-05-30T14:31:34.701Z" agent="Mozilla/5.0 (Windows NT 10.0; Win64; x64) AppleWebKit/537.36 (KHTML, like Gecko) Chrome/113.0.0.0 Safari/537.36" etag="V96IvEYOc72wu0WZ8Okf" version="21.3.5" type="github">
  <diagram name="Page-1" id="nFvtruM5a9NKhMH6lXlv">
    <mxGraphModel dx="987" dy="547" grid="1" gridSize="10" guides="1" tooltips="1" connect="1" arrows="1" fold="1" page="1" pageScale="1" pageWidth="850" pageHeight="1100" math="0" shadow="0">
      <root>
        <mxCell id="0" />
        <mxCell id="1" parent="0" />
        <mxCell id="TWuxF8MGFuOzXja6cLXJ-24" style="edgeStyle=orthogonalEdgeStyle;rounded=0;orthogonalLoop=1;jettySize=auto;html=1;entryX=0;entryY=0.5;entryDx=0;entryDy=0;" edge="1" parent="1" source="TWuxF8MGFuOzXja6cLXJ-2" target="TWuxF8MGFuOzXja6cLXJ-4">
          <mxGeometry relative="1" as="geometry">
            <Array as="points">
              <mxPoint x="120" y="760" />
            </Array>
          </mxGeometry>
        </mxCell>
        <mxCell id="TWuxF8MGFuOzXja6cLXJ-2" value="Featured Page" style="rounded=0;whiteSpace=wrap;html=1;" vertex="1" parent="1">
          <mxGeometry x="60" y="560" width="120" height="60" as="geometry" />
        </mxCell>
        <mxCell id="TWuxF8MGFuOzXja6cLXJ-4" value="App.jsx" style="rounded=0;whiteSpace=wrap;html=1;" vertex="1" parent="1">
          <mxGeometry x="305" y="730" width="120" height="60" as="geometry" />
        </mxCell>
        <mxCell id="TWuxF8MGFuOzXja6cLXJ-45" style="edgeStyle=orthogonalEdgeStyle;rounded=0;orthogonalLoop=1;jettySize=auto;html=1;entryX=0.5;entryY=0;entryDx=0;entryDy=0;" edge="1" parent="1" source="TWuxF8MGFuOzXja6cLXJ-5" target="TWuxF8MGFuOzXja6cLXJ-44">
          <mxGeometry relative="1" as="geometry" />
        </mxCell>
        <mxCell id="TWuxF8MGFuOzXja6cLXJ-48" style="edgeStyle=orthogonalEdgeStyle;rounded=0;orthogonalLoop=1;jettySize=auto;html=1;entryX=0;entryY=0.5;entryDx=0;entryDy=0;" edge="1" parent="1" source="TWuxF8MGFuOzXja6cLXJ-5" target="TWuxF8MGFuOzXja6cLXJ-4">
          <mxGeometry relative="1" as="geometry">
            <Array as="points">
              <mxPoint x="290" y="410" />
              <mxPoint x="290" y="760" />
            </Array>
          </mxGeometry>
        </mxCell>
        <mxCell id="TWuxF8MGFuOzXja6cLXJ-5" value="Movies Page" style="rounded=0;whiteSpace=wrap;html=1;" vertex="1" parent="1">
          <mxGeometry x="365" y="380" width="120" height="60" as="geometry" />
        </mxCell>
        <mxCell id="TWuxF8MGFuOzXja6cLXJ-16" style="edgeStyle=orthogonalEdgeStyle;rounded=0;orthogonalLoop=1;jettySize=auto;html=1;entryX=0.5;entryY=0;entryDx=0;entryDy=0;" edge="1" parent="1" source="TWuxF8MGFuOzXja6cLXJ-6" target="TWuxF8MGFuOzXja6cLXJ-13">
          <mxGeometry relative="1" as="geometry" />
        </mxCell>
        <mxCell id="TWuxF8MGFuOzXja6cLXJ-22" style="edgeStyle=orthogonalEdgeStyle;rounded=0;orthogonalLoop=1;jettySize=auto;html=1;entryX=-0.028;entryY=0.643;entryDx=0;entryDy=0;entryPerimeter=0;" edge="1" parent="1" source="TWuxF8MGFuOzXja6cLXJ-6" target="TWuxF8MGFuOzXja6cLXJ-2">
          <mxGeometry relative="1" as="geometry">
            <Array as="points">
              <mxPoint x="30" y="290" />
              <mxPoint x="30" y="599" />
            </Array>
          </mxGeometry>
        </mxCell>
        <mxCell id="TWuxF8MGFuOzXja6cLXJ-6" value="Backdrop.jsx" style="rounded=0;whiteSpace=wrap;html=1;" vertex="1" parent="1">
          <mxGeometry x="60" y="260" width="120" height="60" as="geometry" />
        </mxCell>
        <mxCell id="TWuxF8MGFuOzXja6cLXJ-27" style="edgeStyle=orthogonalEdgeStyle;rounded=0;orthogonalLoop=1;jettySize=auto;html=1;entryX=1;entryY=0.5;entryDx=0;entryDy=0;" edge="1" parent="1" source="TWuxF8MGFuOzXja6cLXJ-7" target="TWuxF8MGFuOzXja6cLXJ-26">
          <mxGeometry relative="1" as="geometry" />
        </mxCell>
        <mxCell id="TWuxF8MGFuOzXja6cLXJ-32" style="edgeStyle=orthogonalEdgeStyle;rounded=0;orthogonalLoop=1;jettySize=auto;html=1;" edge="1" parent="1" source="TWuxF8MGFuOzXja6cLXJ-7" target="TWuxF8MGFuOzXja6cLXJ-29">
          <mxGeometry relative="1" as="geometry" />
        </mxCell>
        <mxCell id="TWuxF8MGFuOzXja6cLXJ-7" value="Data.js" style="rounded=0;whiteSpace=wrap;html=1;" vertex="1" parent="1">
          <mxGeometry x="365" y="150" width="120" height="60" as="geometry" />
        </mxCell>
        <mxCell id="TWuxF8MGFuOzXja6cLXJ-10" style="edgeStyle=orthogonalEdgeStyle;rounded=0;orthogonalLoop=1;jettySize=auto;html=1;entryX=0.5;entryY=0;entryDx=0;entryDy=0;" edge="1" parent="1" source="TWuxF8MGFuOzXja6cLXJ-8" target="TWuxF8MGFuOzXja6cLXJ-7">
          <mxGeometry relative="1" as="geometry" />
        </mxCell>
        <mxCell id="TWuxF8MGFuOzXja6cLXJ-8" value="Axios fetch template" style="rounded=0;whiteSpace=wrap;html=1;" vertex="1" parent="1">
          <mxGeometry x="365" y="40" width="120" height="60" as="geometry" />
        </mxCell>
        <mxCell id="TWuxF8MGFuOzXja6cLXJ-12" style="edgeStyle=orthogonalEdgeStyle;rounded=0;orthogonalLoop=1;jettySize=auto;html=1;entryX=1;entryY=0.5;entryDx=0;entryDy=0;" edge="1" parent="1" source="TWuxF8MGFuOzXja6cLXJ-11" target="TWuxF8MGFuOzXja6cLXJ-8">
          <mxGeometry relative="1" as="geometry" />
        </mxCell>
        <mxCell id="TWuxF8MGFuOzXja6cLXJ-11" value="TMDB API" style="shape=cylinder3;whiteSpace=wrap;html=1;boundedLbl=1;backgroundOutline=1;size=15;" vertex="1" parent="1">
          <mxGeometry x="620" y="30" width="120" height="80" as="geometry" />
        </mxCell>
        <mxCell id="TWuxF8MGFuOzXja6cLXJ-17" value="" style="edgeStyle=orthogonalEdgeStyle;rounded=0;orthogonalLoop=1;jettySize=auto;html=1;" edge="1" parent="1" source="TWuxF8MGFuOzXja6cLXJ-13" target="TWuxF8MGFuOzXja6cLXJ-15">
          <mxGeometry relative="1" as="geometry" />
        </mxCell>
        <mxCell id="TWuxF8MGFuOzXja6cLXJ-13" value="{movie datas}&lt;br&gt;{active Slide State}&lt;br&gt;{slideClick fn}" style="rounded=0;whiteSpace=wrap;html=1;" vertex="1" parent="1">
          <mxGeometry x="60" y="360" width="120" height="60" as="geometry" />
        </mxCell>
        <mxCell id="TWuxF8MGFuOzXja6cLXJ-20" style="edgeStyle=orthogonalEdgeStyle;rounded=0;orthogonalLoop=1;jettySize=auto;html=1;entryX=1;entryY=0.5;entryDx=0;entryDy=0;" edge="1" parent="1" source="TWuxF8MGFuOzXja6cLXJ-15" target="TWuxF8MGFuOzXja6cLXJ-6">
          <mxGeometry relative="1" as="geometry">
            <mxPoint x="300" y="490" as="targetPoint" />
            <Array as="points">
              <mxPoint x="230" y="490" />
              <mxPoint x="230" y="290" />
            </Array>
          </mxGeometry>
        </mxCell>
        <mxCell id="TWuxF8MGFuOzXja6cLXJ-15" value="Slides" style="rounded=0;whiteSpace=wrap;html=1;" vertex="1" parent="1">
          <mxGeometry x="60" y="460" width="120" height="60" as="geometry" />
        </mxCell>
        <mxCell id="TWuxF8MGFuOzXja6cLXJ-40" style="edgeStyle=orthogonalEdgeStyle;rounded=0;orthogonalLoop=1;jettySize=auto;html=1;" edge="1" parent="1" source="TWuxF8MGFuOzXja6cLXJ-23" target="TWuxF8MGFuOzXja6cLXJ-4">
          <mxGeometry relative="1" as="geometry" />
        </mxCell>
        <mxCell id="TWuxF8MGFuOzXja6cLXJ-23" value="NavBar" style="rounded=0;whiteSpace=wrap;html=1;" vertex="1" parent="1">
          <mxGeometry x="580" y="730" width="120" height="60" as="geometry" />
        </mxCell>
        <mxCell id="TWuxF8MGFuOzXja6cLXJ-28" style="edgeStyle=orthogonalEdgeStyle;rounded=0;orthogonalLoop=1;jettySize=auto;html=1;entryX=0.5;entryY=0;entryDx=0;entryDy=0;" edge="1" parent="1" source="TWuxF8MGFuOzXja6cLXJ-26" target="TWuxF8MGFuOzXja6cLXJ-6">
          <mxGeometry relative="1" as="geometry" />
        </mxCell>
        <mxCell id="TWuxF8MGFuOzXja6cLXJ-26" value="Popular&lt;br&gt;Movies Data" style="rounded=0;whiteSpace=wrap;html=1;" vertex="1" parent="1">
          <mxGeometry x="60" y="150" width="120" height="60" as="geometry" />
        </mxCell>
        <mxCell id="TWuxF8MGFuOzXja6cLXJ-36" style="edgeStyle=orthogonalEdgeStyle;rounded=0;orthogonalLoop=1;jettySize=auto;html=1;entryX=-0.083;entryY=0.5;entryDx=0;entryDy=0;entryPerimeter=0;" edge="1" parent="1" source="TWuxF8MGFuOzXja6cLXJ-29" target="TWuxF8MGFuOzXja6cLXJ-35">
          <mxGeometry relative="1" as="geometry" />
        </mxCell>
        <mxCell id="TWuxF8MGFuOzXja6cLXJ-38" style="edgeStyle=orthogonalEdgeStyle;rounded=0;orthogonalLoop=1;jettySize=auto;html=1;entryX=0.5;entryY=0;entryDx=0;entryDy=0;" edge="1" parent="1" source="TWuxF8MGFuOzXja6cLXJ-29" target="TWuxF8MGFuOzXja6cLXJ-5">
          <mxGeometry relative="1" as="geometry" />
        </mxCell>
        <mxCell id="TWuxF8MGFuOzXja6cLXJ-29" value="movie/${category}&lt;br&gt;API" style="rounded=0;whiteSpace=wrap;html=1;" vertex="1" parent="1">
          <mxGeometry x="365" y="270" width="120" height="60" as="geometry" />
        </mxCell>
        <mxCell id="TWuxF8MGFuOzXja6cLXJ-31" style="edgeStyle=orthogonalEdgeStyle;rounded=0;orthogonalLoop=1;jettySize=auto;html=1;entryX=1;entryY=0.5;entryDx=0;entryDy=0;" edge="1" parent="1" source="TWuxF8MGFuOzXja6cLXJ-30" target="TWuxF8MGFuOzXja6cLXJ-7">
          <mxGeometry relative="1" as="geometry" />
        </mxCell>
        <mxCell id="TWuxF8MGFuOzXja6cLXJ-30" value="Category Array" style="rounded=0;whiteSpace=wrap;html=1;" vertex="1" parent="1">
          <mxGeometry x="630" y="150" width="120" height="60" as="geometry" />
        </mxCell>
        <mxCell id="TWuxF8MGFuOzXja6cLXJ-37" style="edgeStyle=orthogonalEdgeStyle;rounded=0;orthogonalLoop=1;jettySize=auto;html=1;entryX=0.5;entryY=1;entryDx=0;entryDy=0;" edge="1" parent="1" source="TWuxF8MGFuOzXja6cLXJ-34" target="TWuxF8MGFuOzXja6cLXJ-35">
          <mxGeometry relative="1" as="geometry" />
        </mxCell>
        <mxCell id="TWuxF8MGFuOzXja6cLXJ-39" style="edgeStyle=orthogonalEdgeStyle;rounded=0;orthogonalLoop=1;jettySize=auto;html=1;" edge="1" parent="1" source="TWuxF8MGFuOzXja6cLXJ-34" target="TWuxF8MGFuOzXja6cLXJ-5">
          <mxGeometry relative="1" as="geometry" />
        </mxCell>
        <mxCell id="TWuxF8MGFuOzXja6cLXJ-34" value="Genres API" style="rounded=0;whiteSpace=wrap;html=1;" vertex="1" parent="1">
          <mxGeometry x="560" y="380" width="120" height="60" as="geometry" />
        </mxCell>
        <mxCell id="TWuxF8MGFuOzXja6cLXJ-35" value="Movie ID" style="rounded=0;whiteSpace=wrap;html=1;" vertex="1" parent="1">
          <mxGeometry x="560" y="270" width="120" height="60" as="geometry" />
        </mxCell>
        <mxCell id="TWuxF8MGFuOzXja6cLXJ-47" style="edgeStyle=orthogonalEdgeStyle;rounded=0;orthogonalLoop=1;jettySize=auto;html=1;entryX=0;entryY=0.5;entryDx=0;entryDy=0;" edge="1" parent="1" source="TWuxF8MGFuOzXja6cLXJ-41" target="TWuxF8MGFuOzXja6cLXJ-5">
          <mxGeometry relative="1" as="geometry">
            <Array as="points">
              <mxPoint x="345" y="630" />
              <mxPoint x="345" y="410" />
            </Array>
          </mxGeometry>
        </mxCell>
        <mxCell id="TWuxF8MGFuOzXja6cLXJ-41" value="Cards" style="rounded=0;whiteSpace=wrap;html=1;" vertex="1" parent="1">
          <mxGeometry x="365" y="600" width="120" height="60" as="geometry" />
        </mxCell>
        <mxCell id="TWuxF8MGFuOzXja6cLXJ-46" style="edgeStyle=orthogonalEdgeStyle;rounded=0;orthogonalLoop=1;jettySize=auto;html=1;" edge="1" parent="1" source="TWuxF8MGFuOzXja6cLXJ-44" target="TWuxF8MGFuOzXja6cLXJ-41">
          <mxGeometry relative="1" as="geometry" />
        </mxCell>
        <mxCell id="TWuxF8MGFuOzXja6cLXJ-44" value="{...movies}&lt;br&gt;{genres[i]}" style="rounded=0;whiteSpace=wrap;html=1;" vertex="1" parent="1">
          <mxGeometry x="365" y="490" width="120" height="60" as="geometry" />
        </mxCell>
      </root>
    </mxGraphModel>
  </diagram>
</mxfile>
